<svg width="58" height="34" viewBox="0 0 58 34" fill="none" xmlns="http://www.w3.org/2000/svg">
<g filter="url(#filter0_i)">
<path d="M34.68 31.12L34.2 32.6C33.5067 32.6533 32.9867 32.68 32.64 32.68C31.04 32.68 29.7333 32 28.72 30.64C27.7333 29.3067 27.24 27.56 27.24 25.4C27.24 24.0933 27.5333 21.6267 28.12 18C28.7333 14.3467 29.44 11.0133 30.24 8C30.4 7.33333 30.48 6.89333 30.48 6.68C30.48 6.46667 30.3867 6.36 30.2 6.36C30.0133 6.36 29.4133 7.36 28.4 9.36C27.4133 11.3333 26.2267 13.7733 24.84 16.68C23.4533 19.56 22.6533 21.2133 22.44 21.64C22.2533 22.04 22.0933 22.3733 21.96 22.64C21.8533 22.88 21.6133 23.3333 21.24 24C20.8933 24.64 20.56 25.2133 20.24 25.72C19.36 27.0533 18.6667 27.72 18.16 27.72C17.8133 27.72 17.4267 27.6267 17 27.44C16.6 27.2533 16.3333 27.0533 16.2 26.84C15.9067 26.3867 15.76 24.9733 15.76 22.6C15.76 17.64 16.16 12.9067 16.96 8.4C17.2267 6.90667 17.36 6.12 17.36 6.04C17.36 5.77333 17.2533 5.64 17.04 5.64C16.6133 5.64 15.9333 6.97333 15 9.64L13.84 12.96C12.1333 17.7867 10.4 21.5467 8.64 24.24C6.90667 26.9333 4.90667 28.8267 2.64 29.92L1.6 27.72C4.18667 25.8 6.17333 23.84 7.56 21.84C8.97333 19.84 10.5067 16.6133 12.16 12.16L13.52 8.52C14.4533 5.98667 15.2667 4.18667 15.96 3.12C16.6533 2.02667 17.4267 1.48 18.28 1.48C19.6933 1.48 20.4 2.33333 20.4 4.04C20.4 4.17333 20.1467 6.88 19.64 12.16C19.1333 17.4133 18.88 20.88 18.88 22.56C18.88 23.04 18.96 23.2933 19.12 23.32C19.2533 23.32 19.4 23.1867 19.56 22.92C21.72 19.32 23.7867 15.4 25.76 11.16C26 10.6267 26.4133 9.70667 27 8.4C27.5867 7.09333 28.16 5.93333 28.72 4.92C29.28 3.90667 29.7067 3.29333 30 3.08C30.2933 2.84 30.76 2.72 31.4 2.72C32.04 2.72 32.5867 2.96 33.04 3.44C33.52 3.89333 33.76 4.44 33.76 5.08C33.76 5.72 33.6667 6.45333 33.48 7.28C31.4 17.44 30.36 23.52 30.36 25.52C30.36 27.4933 30.68 28.84 31.32 29.56C31.96 30.3067 33.08 30.8267 34.68 31.12ZM55.4444 2.52L56.6044 4.24C53.8577 6.05333 50.8977 8.94667 47.7244 12.92C44.551 16.8667 42.071 20.9467 40.2844 25.16C39.911 26.04 39.5777 26.6267 39.2844 26.92C39.0177 27.2133 38.6177 27.36 38.0844 27.36C37.5777 27.36 37.111 27.1867 36.6844 26.84C36.2844 26.4667 36.0844 25.92 36.0844 25.2C36.0844 24.4533 36.1777 23.0533 36.3644 21C36.5777 18.92 36.6844 17.4533 36.6844 16.6C36.6844 10.6 36.0177 5.76 34.6844 2.08L37.6044 1.28C39.1244 3.92 39.8844 8.68 39.8844 15.56C39.8844 17.8 39.8444 19.5867 39.7644 20.92C44.031 12.1733 49.2577 6.04 55.4444 2.52Z" fill="#369488"/>
</g>
<path d="M34.68 31.12L35.6312 31.4285L35.9835 30.3423L34.8603 30.1364L34.68 31.12ZM34.2 32.6L34.2767 33.5971L34.9446 33.5457L35.1512 32.9085L34.2 32.6ZM28.72 30.64L27.9162 31.2348L27.9181 31.2375L28.72 30.64ZM28.12 18L27.1338 17.8344L27.1328 17.8403L28.12 18ZM30.24 8L31.2065 8.2566L31.2096 8.24502L31.2124 8.23337L30.24 8ZM28.4 9.36L27.508 8.90803L27.5056 8.91279L28.4 9.36ZM24.84 16.68L25.741 17.1138L25.7426 17.1106L24.84 16.68ZM22.44 21.64L21.5456 21.1928L21.5395 21.2049L21.5338 21.2171L22.44 21.64ZM21.96 22.64L21.0656 22.1928L21.0554 22.2131L21.0462 22.2339L21.96 22.64ZM21.24 24L20.3674 23.5113L20.3607 23.5237L21.24 24ZM20.24 25.72L21.0746 26.2708L21.0801 26.2625L21.0855 26.254L20.24 25.72ZM17 27.44L16.5771 28.3462L16.5881 28.3513L16.5992 28.3562L17 27.44ZM16.2 26.84L17.048 26.31L17.0438 26.3033L17.0396 26.2967L16.2 26.84ZM16.96 8.4L15.9756 8.22421L15.9754 8.22522L16.96 8.4ZM15 9.64L14.0561 9.30965L14.056 9.31016L15 9.64ZM13.84 12.96L14.7828 13.2934L14.784 13.2898L13.84 12.96ZM8.64 24.24L7.80286 23.693L7.79909 23.6988L8.64 24.24ZM2.64 29.92L1.73593 30.3474L2.16667 31.2586L3.07445 30.8207L2.64 29.92ZM1.6 27.72L1.00398 26.917L0.345398 27.4059L0.695928 28.1474L1.6 27.72ZM7.56 21.84L6.7433 21.2629L6.7382 21.2702L7.56 21.84ZM12.16 12.16L11.2232 11.81L11.2225 11.812L12.16 12.16ZM13.52 8.52L14.4568 8.87L14.4583 8.8657L13.52 8.52ZM15.96 3.12L16.7985 3.66502L16.8045 3.65554L15.96 3.12ZM19.64 12.16L20.6354 12.256L20.6354 12.2555L19.64 12.16ZM19.12 23.32L18.9556 24.3064L19.0372 24.32H19.12V23.32ZM19.56 22.92L18.7025 22.4055L18.7025 22.4055L19.56 22.92ZM25.76 11.16L26.6667 11.582L26.6719 11.5704L25.76 11.16ZM27 8.4L26.0877 7.99041L26.0877 7.99041L27 8.4ZM28.72 4.92L29.5952 5.40368L29.5952 5.40368L28.72 4.92ZM30 3.08L30.5882 3.88873L30.6112 3.87199L30.6332 3.85395L30 3.08ZM33.04 3.44L32.313 4.12662L32.3326 4.14739L32.3534 4.16701L33.04 3.44ZM33.48 7.28L32.5046 7.05974L32.5023 7.06957L32.5003 7.07943L33.48 7.28ZM31.32 29.56L32.0793 28.9092L32.0734 28.9024L32.0674 28.8956L31.32 29.56ZM33.7288 30.8115L33.2488 32.2915L35.1512 32.9085L35.6312 31.4285L33.7288 30.8115ZM34.1233 31.6029C33.4355 31.6559 32.9468 31.68 32.64 31.68V33.68C33.0265 33.68 33.5778 33.6508 34.2767 33.5971L34.1233 31.6029ZM32.64 31.68C31.3774 31.68 30.3597 31.167 29.5219 30.0425L27.9181 31.2375C29.107 32.833 30.7026 33.68 32.64 33.68V31.68ZM29.5238 30.0452C28.6983 28.9296 28.24 27.4105 28.24 25.4H26.24C26.24 27.7095 26.7683 29.6837 27.9162 31.2348L29.5238 30.0452ZM28.24 25.4C28.24 24.1857 28.519 21.7959 29.1072 18.1597L27.1328 17.8403C26.5477 21.4574 26.24 24.0009 26.24 25.4H28.24ZM29.1062 18.1656C29.7153 14.5374 30.4158 11.235 31.2065 8.2566L29.2735 7.7434C28.4642 10.7917 27.7514 14.156 27.1338 17.8344L29.1062 18.1656ZM31.2124 8.23337C31.3662 7.59252 31.48 7.03338 31.48 6.68H29.48C29.48 6.67717 29.4798 6.70052 29.4724 6.76096C29.4654 6.81803 29.4538 6.89391 29.4361 6.99111C29.4007 7.18597 29.3453 7.44294 29.2676 7.76663L31.2124 8.23337ZM31.48 6.68C31.48 6.44955 31.4325 6.08995 31.1626 5.7815C30.8704 5.44753 30.4848 5.36 30.2 5.36V7.36C30.1019 7.36 29.8563 7.3258 29.6574 7.0985C29.4809 6.89671 29.48 6.69711 29.48 6.68H31.48ZM30.2 5.36C29.7874 5.36 29.5152 5.59986 29.4577 5.64946C29.3514 5.74111 29.2631 5.84461 29.1965 5.92921C29.0591 6.1039 28.9095 6.33384 28.7525 6.5955C28.4337 7.1268 28.0175 7.90233 27.508 8.90803L29.292 9.81196C29.7958 8.81767 30.1863 8.0932 30.4675 7.62449C30.6105 7.38616 30.7092 7.2411 30.7685 7.16578C30.8002 7.12539 30.7974 7.13514 30.7636 7.16428C30.7461 7.17936 30.6989 7.21833 30.6246 7.25731C30.5553 7.29368 30.4057 7.36 30.2 7.36V5.36ZM27.5056 8.91279C26.5152 10.8935 25.3257 13.3395 23.9374 16.2494L25.7426 17.1106C27.1277 14.2072 28.3115 11.7732 29.2944 9.80721L27.5056 8.91279ZM23.939 16.2462C22.5501 19.1308 21.7546 20.7747 21.5456 21.1928L23.3344 22.0872C23.5521 21.6519 24.3566 19.9892 25.741 17.1138L23.939 16.2462ZM21.5338 21.2171C21.3493 21.6124 21.1935 21.937 21.0656 22.1928L22.8544 23.0872C22.9932 22.8097 23.1573 22.4676 23.3462 22.0629L21.5338 21.2171ZM21.0462 22.2339C20.9613 22.425 20.7441 22.8389 20.3675 23.5114L22.1125 24.4886C22.4826 23.8278 22.7454 23.335 22.8738 23.0461L21.0462 22.2339ZM20.3607 23.5237C20.0225 24.1481 19.7004 24.7017 19.3945 25.186L21.0855 26.254C21.4196 25.725 21.7642 25.1319 22.1193 24.4763L20.3607 23.5237ZM19.4054 25.1692C18.9832 25.8089 18.6369 26.2396 18.3669 26.4992C18.0583 26.7959 18.0043 26.72 18.16 26.72V28.72C18.8223 28.72 19.3683 28.3108 19.7531 27.9408C20.1765 27.5337 20.6168 26.9645 21.0746 26.2708L19.4054 25.1692ZM18.16 26.72C17.99 26.72 17.7421 26.6732 17.4008 26.5238L16.5992 28.3562C17.1112 28.5802 17.6367 28.72 18.16 28.72V26.72ZM17.4229 26.5338C17.2666 26.4609 17.1637 26.3978 17.1 26.35C17.035 26.3013 17.0319 26.2843 17.048 26.31L15.352 27.37C15.6391 27.8294 16.1178 28.1318 16.5771 28.3462L17.4229 26.5338ZM17.0396 26.2967C17.059 26.3268 17.0266 26.285 16.9808 26.0906C16.9391 25.9134 16.8988 25.6658 16.8647 25.3368C16.7964 24.6795 16.76 23.7717 16.76 22.6H14.76C14.76 23.8016 14.7969 24.7872 14.8753 25.5432C14.9145 25.9209 14.9659 26.2599 15.0342 26.5494C15.0984 26.8217 15.1943 27.1265 15.3604 27.3833L17.0396 26.2967ZM16.76 22.6C16.76 17.6938 17.1557 13.0192 17.9446 8.57478L15.9754 8.22522C15.1643 12.7941 14.76 17.5862 14.76 22.6H16.76ZM17.9444 8.57579C18.0779 7.82831 18.1785 7.25486 18.2459 6.85711C18.2796 6.65877 18.3055 6.50041 18.3234 6.38456C18.3322 6.32715 18.3398 6.27525 18.3454 6.23191C18.3477 6.21424 18.36 6.12661 18.36 6.04H16.36C16.36 5.97338 16.3681 5.92784 16.3621 5.97434C16.3594 5.99516 16.3545 6.02951 16.3466 6.08044C16.3311 6.18126 16.3071 6.3279 16.2741 6.52289C16.2081 6.91181 16.1088 7.47836 15.9756 8.22421L17.9444 8.57579ZM18.36 6.04C18.36 5.79982 18.3163 5.43464 18.0609 5.1153C17.7713 4.75336 17.3674 4.64 17.04 4.64V6.64C16.926 6.64 16.682 6.59331 16.4991 6.36469C16.4229 6.26943 16.3887 6.17873 16.3738 6.12266C16.3663 6.09455 16.363 6.07292 16.3615 6.05979C16.3607 6.05308 16.3603 6.04803 16.3602 6.04482C16.3601 6.0432 16.36 6.04198 16.36 6.04119C16.36 6.04079 16.36 6.04049 16.36 6.04029C16.36 6.04019 16.36 6.04012 16.36 6.04007C16.36 6.04005 16.36 6.04003 16.36 6.04002C16.36 6.04014 16.36 6.03988 16.36 6.04C16.36 6.04013 16.36 6.03987 16.36 6.04H18.36ZM17.04 4.64C16.7219 4.64 16.4703 4.76366 16.3057 4.87568C16.1402 4.98824 16.0071 5.12592 15.903 5.25133C15.6956 5.50126 15.5022 5.8267 15.3192 6.18567C14.9481 6.91335 14.5271 7.96406 14.0561 9.30965L15.9439 9.97035C16.4062 8.64927 16.792 7.69998 17.1008 7.09432C17.2578 6.78663 17.3728 6.61207 17.442 6.52867C17.4762 6.48741 17.4736 6.50009 17.4306 6.52932C17.3884 6.55801 17.2514 6.64 17.04 6.64V4.64ZM14.056 9.31016L12.896 12.6302L14.784 13.2898L15.944 9.96984L14.056 9.31016ZM12.8972 12.6266C11.2035 17.4167 9.50145 21.0937 7.80288 23.693L9.47712 24.787C11.2986 21.9997 13.0632 18.1566 14.7828 13.2934L12.8972 12.6266ZM7.79909 23.6988C6.13865 26.2789 4.26653 28.0252 2.20555 29.0193L3.07445 30.8207C5.5468 29.6281 7.67468 27.5878 9.48091 24.7812L7.79909 23.6988ZM3.54407 29.4926L2.50407 27.2926L0.695928 28.1474L1.73593 30.3474L3.54407 29.4926ZM2.19602 28.523C4.84356 26.5578 6.91667 24.5229 8.3818 22.4098L6.7382 21.2702C5.43 23.1571 3.52977 25.0422 1.00398 26.917L2.19602 28.523ZM8.37667 22.4171C9.86722 20.3078 11.4366 16.9817 13.0975 12.508L11.2225 11.812C9.57672 16.245 8.07944 19.3722 6.74333 21.2629L8.37667 22.4171ZM13.0968 12.51L14.4568 8.86999L12.5832 8.17L11.2232 11.81L13.0968 12.51ZM14.4583 8.8657C15.3879 6.34249 16.1699 4.63199 16.7984 3.66499L15.1216 2.57501C14.3634 3.74135 13.5187 5.63084 12.5817 8.17429L14.4583 8.8657ZM16.8045 3.65554C17.4153 2.69236 17.9225 2.48 18.28 2.48V0.48C16.9308 0.48 15.8914 1.36097 15.1155 2.58446L16.8045 3.65554ZM18.28 2.48C18.7777 2.48 18.9867 2.62118 19.0998 2.75781C19.2429 2.93056 19.4 3.29974 19.4 4.04H21.4C21.4 3.0736 21.2038 2.16277 20.6402 1.48219C20.0467 0.765485 19.1957 0.48 18.28 0.48V2.48ZM19.4 4.04C19.4 4.01485 19.3917 4.13887 19.3565 4.53365C19.325 4.88644 19.2776 5.40055 19.2144 6.07681C19.0878 7.42895 18.8979 9.42467 18.6446 12.0645L20.6354 12.2555C20.8888 9.61532 21.0789 7.61772 21.2056 6.26319C21.269 5.58612 21.3167 5.06856 21.3485 4.71135C21.3767 4.39613 21.4 4.13182 21.4 4.04H19.4ZM18.6446 12.064C18.1389 17.3077 17.88 20.8233 17.88 22.56H19.88C19.88 20.9367 20.1278 17.519 20.6354 12.256L18.6446 12.064ZM17.88 22.56C17.88 22.8339 17.9003 23.1383 17.9864 23.4111C18.0623 23.6515 18.3056 24.1981 18.9556 24.3064L19.2844 22.3336C19.5074 22.3708 19.6737 22.4893 19.7743 22.6067C19.8616 22.7086 19.8895 22.7959 19.8936 22.8089C19.8997 22.8284 19.88 22.7661 19.88 22.56H17.88ZM19.12 24.32C19.5327 24.32 19.8329 24.1143 20.0027 23.9599C20.1772 23.8013 20.3123 23.6097 20.4175 23.4345L18.7025 22.4055C18.6477 22.4969 18.6295 22.5054 18.6573 22.4801C18.6805 22.459 18.8406 22.32 19.12 22.32V24.32ZM20.4175 23.4345C22.5974 19.8014 24.6802 15.8501 26.6666 11.5819L24.8534 10.7381C22.8932 14.9499 20.8426 18.8386 18.7025 22.4055L20.4175 23.4345ZM26.6719 11.5704C26.9121 11.0366 27.3256 10.1163 27.9123 8.80959L26.0877 7.99041C25.5011 9.29708 25.0879 10.2167 24.8481 10.7496L26.6719 11.5704ZM27.9123 8.80959C28.4902 7.52249 29.0513 6.38798 29.5952 5.40368L27.8448 4.43631C27.2687 5.47868 26.6832 6.66418 26.0877 7.99041L27.9123 8.80959ZM29.5952 5.40368C29.8666 4.91268 30.0947 4.5387 30.2809 4.27106C30.3737 4.13762 30.4497 4.04 30.5091 3.97178C30.572 3.89949 30.5981 3.88148 30.5882 3.88873L29.4118 2.27126C29.1221 2.48196 28.8634 2.80655 28.6391 3.12893C28.3986 3.47463 28.1334 3.91398 27.8448 4.43631L29.5952 5.40368ZM30.6332 3.85395C30.6609 3.83133 30.8455 3.72 31.4 3.72V1.72C30.6745 1.72 29.9258 1.84867 29.3668 2.30604L30.6332 3.85395ZM31.4 3.72C31.7552 3.72 32.0418 3.83951 32.313 4.12662L33.767 2.75338C33.1315 2.08049 32.3248 1.72 31.4 1.72V3.72ZM32.3534 4.16701C32.6405 4.43818 32.76 4.72479 32.76 5.08H34.76C34.76 4.15521 34.3995 3.34849 33.7266 2.71299L32.3534 4.16701ZM32.76 5.08C32.76 5.62649 32.6798 6.28359 32.5046 7.05974L34.4554 7.50026C34.6535 6.62308 34.76 5.81351 34.76 5.08H32.76ZM32.5003 7.07943C31.4594 12.164 30.677 16.236 30.1543 19.2914C29.637 22.3154 29.36 24.4203 29.36 25.52H31.36C31.36 24.6197 31.603 22.6846 32.1257 19.6286C32.643 16.604 33.4206 12.556 34.4597 7.48056L32.5003 7.07943ZM29.36 25.52C29.36 27.5216 29.668 29.2067 30.5726 30.2244L32.0674 28.8956C31.692 28.4733 31.36 27.465 31.36 25.52H29.36ZM30.5607 30.2108C31.4201 31.2134 32.8101 31.7939 34.4997 32.1036L34.8603 30.1364C33.3499 29.8595 32.4999 29.4 32.0793 28.9092L30.5607 30.2108ZM55.4444 2.52L56.2734 1.96086L55.7553 1.19256L54.9499 1.65083L55.4444 2.52ZM56.6044 4.24L57.1553 5.07453L57.9981 4.51813L57.4334 3.68086L56.6044 4.24ZM47.7244 12.92L48.5037 13.5466L48.5058 13.5441L47.7244 12.92ZM40.2844 25.16L41.205 25.5505L41.205 25.5504L40.2844 25.16ZM39.2844 26.92L38.5773 26.2129L38.5604 26.2297L38.5444 26.2473L39.2844 26.92ZM36.6844 26.84L36.0021 27.5711L36.0271 27.5945L36.0538 27.6161L36.6844 26.84ZM36.3644 21L35.3695 20.898L35.3685 20.9095L36.3644 21ZM34.6844 2.08L34.4201 1.11554L33.3751 1.40186L33.7442 2.42065L34.6844 2.08ZM37.6044 1.28L38.471 0.781035L38.0854 0.111354L37.3401 0.315541L37.6044 1.28ZM39.7644 20.92L38.7662 20.8601L40.6631 21.3584L39.7644 20.92ZM54.6153 3.07914L55.7753 4.79914L57.4334 3.68086L56.2734 1.96086L54.6153 3.07914ZM56.0534 3.40546C53.1854 5.29892 50.1501 8.2803 46.943 12.2959L48.5058 13.5441C51.6453 9.61303 54.53 6.80774 57.1553 5.07453L56.0534 3.40546ZM46.945 12.2934C43.72 16.3043 41.19 20.4629 39.3637 24.7696L41.205 25.5504C42.9521 21.4304 45.3821 17.429 48.5037 13.5466L46.945 12.2934ZM39.3638 24.7695C38.992 25.6458 38.7207 26.0694 38.5773 26.2129L39.9915 27.6271C40.4347 27.1839 40.8301 26.4342 41.205 25.5505L39.3638 24.7695ZM38.5444 26.2473C38.5264 26.2672 38.4377 26.36 38.0844 26.36V28.36C38.7977 28.36 39.5091 28.1594 40.0243 27.5927L38.5444 26.2473ZM38.0844 26.36C37.8274 26.36 37.5796 26.2789 37.315 26.0639L36.0538 27.6161C36.6425 28.0944 37.328 28.36 38.0844 28.36V26.36ZM37.3667 26.1089C37.2279 25.9794 37.0844 25.7347 37.0844 25.2H35.0844C35.0844 26.1053 35.3408 26.9539 36.0021 27.5711L37.3667 26.1089ZM37.0844 25.2C37.0844 24.5053 37.1732 23.1486 37.3603 21.0905L35.3685 20.9095C35.1822 22.9581 35.0844 24.4014 35.0844 25.2H37.0844ZM37.3592 21.102C37.5724 19.0227 37.6844 17.5101 37.6844 16.6H35.6844C35.6844 17.3966 35.583 18.8173 35.3696 20.898L37.3592 21.102ZM37.6844 16.6C37.6844 10.5391 37.0127 5.57061 35.6246 1.73935L33.7442 2.42065C35.0227 5.94939 35.6844 10.6609 35.6844 16.6H37.6844ZM34.9486 3.04446L37.8686 2.24446L37.3401 0.315541L34.4201 1.11554L34.9486 3.04446ZM36.7378 1.77896C38.1133 4.16802 38.8844 8.6861 38.8844 15.56H40.8844C40.8844 8.6739 40.1355 3.67198 38.471 0.781035L36.7378 1.77896ZM38.8844 15.56C38.8844 17.7914 38.8444 19.5555 38.7662 20.8601L40.7626 20.9799C40.8443 19.6178 40.8844 17.8086 40.8844 15.56H38.8844ZM40.6631 21.3584C44.8731 12.728 49.9809 6.77907 55.9389 3.38916L54.9499 1.65083C48.5345 5.30093 43.189 11.6186 38.8656 20.4816L40.6631 21.3584Z" fill="white"/>
<defs>
<filter id="filter0_i" x="0.345398" y="0.111355" width="57.6527" height="37.5686" filterUnits="userSpaceOnUse" color-interpolation-filters="sRGB">
<feFlood flood-opacity="0" result="BackgroundImageFix"/>
<feBlend mode="normal" in="SourceGraphic" in2="BackgroundImageFix" result="shape"/>
<feColorMatrix in="SourceAlpha" type="matrix" values="0 0 0 0 0 0 0 0 0 0 0 0 0 0 0 0 0 0 127 0" result="hardAlpha"/>
<feOffset dy="4"/>
<feGaussianBlur stdDeviation="2"/>
<feComposite in2="hardAlpha" operator="arithmetic" k2="-1" k3="1"/>
<feColorMatrix type="matrix" values="0 0 0 0 0 0 0 0 0 0 0 0 0 0 0 0 0 0 0.25 0"/>
<feBlend mode="normal" in2="shape" result="effect1_innerShadow"/>
</filter>
</defs>
</svg>
