<svg width="12" height="12" viewBox="0 0 12 12" fill="none" xmlns="http://www.w3.org/2000/svg">
<path d="M12 12H9.33333V7.5C9.33333 6.79333 8.54 6.20667 7.83333 6.20667C7.12667 6.20667 6.66667 6.79333 6.66667 7.5V12H4V4H6.66667V5.33333C7.10667 4.62 8.24 4.16 9 4.16C10.6667 4.16 12 5.52 12 7.16667V12ZM2.66667 12H0V4H2.66667V12ZM1.33333 0C1.68696 0 2.02609 0.140476 2.27614 0.390524C2.52619 0.640573 2.66667 0.979711 2.66667 1.33333C2.66667 1.68696 2.52619 2.02609 2.27614 2.27614C2.02609 2.52619 1.68696 2.66667 1.33333 2.66667C0.979711 2.66667 0.640573 2.52619 0.390524 2.27614C0.140476 2.02609 0 1.68696 0 1.33333C0 0.979711 0.140476 0.640573 0.390524 0.390524C0.640573 0.140476 0.979711 0 1.33333 0Z" fill="white"/>
</svg>
